<svg width="1440" height="1024" viewBox="0 0 1440 1024" fill="none" xmlns="http://www.w3.org/2000/svg">
<g clip-path="url(#clip0_2_135)">
<path d="M2100 0H0V1050H2100V0Z" fill="#2CA9BB"/>
<path d="M0 2362.5C1304.77 2362.5 2362.5 1304.77 2362.5 0C2362.5 -1304.77 1304.77 -2362.5 0 -2362.5C-1304.77 -2362.5 -2362.5 -1304.77 -2362.5 0C-2362.5 1304.77 -1304.77 2362.5 0 2362.5Z" fill="#2CA9BB" stroke="black" stroke-opacity="0.05" stroke-width="75.2"/>
<path d="M0 2231.25C1232.29 2231.25 2231.25 1232.29 2231.25 0C2231.25 -1232.29 1232.29 -2231.25 0 -2231.25C-1232.29 -2231.25 -2231.25 -1232.29 -2231.25 0C-2231.25 1232.29 -1232.29 2231.25 0 2231.25Z" fill="#29A1B3" stroke="black" stroke-opacity="0.05" stroke-width="75.2"/>
<path d="M0 2100C1159.8 2100 2100 1159.8 2100 0C2100 -1159.8 1159.8 -2100 0 -2100C-1159.8 -2100 -2100 -1159.8 -2100 0C-2100 1159.8 -1159.8 2100 0 2100Z" fill="#269AAC" stroke="black" stroke-opacity="0.05" stroke-width="75.2"/>
<path d="M0 1968.75C1087.31 1968.75 1968.75 1087.31 1968.75 0C1968.75 -1087.31 1087.31 -1968.75 0 -1968.75C-1087.31 -1968.75 -1968.75 -1087.31 -1968.75 0C-1968.75 1087.31 -1087.31 1968.75 0 1968.75Z" fill="#2492A5" stroke="black" stroke-opacity="0.05" stroke-width="75.2"/>
<path d="M0 1837.5C1014.82 1837.5 1837.5 1014.82 1837.5 0C1837.5 -1014.82 1014.82 -1837.5 0 -1837.5C-1014.82 -1837.5 -1837.5 -1014.82 -1837.5 0C-1837.5 1014.82 -1014.82 1837.5 0 1837.5Z" fill="#218A9D" stroke="black" stroke-opacity="0.05" stroke-width="75.2"/>
<path d="M0 1706.25C942.336 1706.25 1706.25 942.336 1706.25 0C1706.25 -942.336 942.336 -1706.25 0 -1706.25C-942.336 -1706.25 -1706.25 -942.336 -1706.25 0C-1706.25 942.336 -942.336 1706.25 0 1706.25Z" fill="#1E8396" stroke="black" stroke-opacity="0.05" stroke-width="75.2"/>
<path d="M0 1575C869.848 1575 1575 869.848 1575 0C1575 -869.849 869.848 -1575 0 -1575C-869.849 -1575 -1575 -869.849 -1575 0C-1575 869.848 -869.849 1575 0 1575Z" fill="#1B7B8F" stroke="black" stroke-opacity="0.05" stroke-width="75.2"/>
<path d="M0 1443.75C797.361 1443.75 1443.75 797.361 1443.75 0C1443.75 -797.361 797.361 -1443.75 0 -1443.75C-797.361 -1443.75 -1443.75 -797.361 -1443.75 0C-1443.75 797.361 -797.361 1443.75 0 1443.75Z" fill="#197488" stroke="black" stroke-opacity="0.05" stroke-width="75.2"/>
<path d="M0 1312.5C724.874 1312.5 1312.5 724.874 1312.5 0C1312.5 -724.874 724.874 -1312.5 0 -1312.5C-724.874 -1312.5 -1312.5 -724.874 -1312.5 0C-1312.5 724.874 -724.874 1312.5 0 1312.5Z" fill="#166D80" stroke="black" stroke-opacity="0.05" stroke-width="75.2"/>
<path d="M0 1181.25C652.386 1181.25 1181.25 652.386 1181.25 0C1181.25 -652.386 652.386 -1181.25 0 -1181.25C-652.386 -1181.25 -1181.25 -652.386 -1181.25 0C-1181.25 652.386 -652.386 1181.25 0 1181.25Z" fill="#136679" stroke="black" stroke-opacity="0.05" stroke-width="75.2"/>
<path d="M0 1050C579.899 1050 1050 579.899 1050 0C1050 -579.899 579.899 -1050 0 -1050C-579.899 -1050 -1050 -579.899 -1050 0C-1050 579.899 -579.899 1050 0 1050Z" fill="#105F73" stroke="black" stroke-opacity="0.05" stroke-width="75.2"/>
<path d="M0 918.75C507.412 918.75 918.75 507.412 918.75 0C918.75 -507.412 507.412 -918.75 0 -918.75C-507.412 -918.75 -918.75 -507.412 -918.75 0C-918.75 507.412 -507.412 918.75 0 918.75Z" fill="#0D586C" stroke="black" stroke-opacity="0.05" stroke-width="75.2"/>
<path d="M0 787.5C434.924 787.5 787.5 434.924 787.5 0C787.5 -434.924 434.924 -787.5 0 -787.5C-434.924 -787.5 -787.5 -434.924 -787.5 0C-787.5 434.924 -434.924 787.5 0 787.5Z" fill="#0B5165" stroke="black" stroke-opacity="0.05" stroke-width="75.2"/>
<path d="M0 656.25C362.437 656.25 656.25 362.437 656.25 0C656.25 -362.437 362.437 -656.25 0 -656.25C-362.437 -656.25 -656.25 -362.437 -656.25 0C-656.25 362.437 -362.437 656.25 0 656.25Z" fill="#084A5E" stroke="black" stroke-opacity="0.05" stroke-width="75.2"/>
<path d="M0 525C289.949 525 525 289.949 525 0C525 -289.949 289.949 -525 0 -525C-289.949 -525 -525 -289.949 -525 0C-525 289.949 -289.949 525 0 525Z" fill="#054357" stroke="black" stroke-opacity="0.05" stroke-width="75.2"/>
<path d="M0 393.75C217.462 393.75 393.75 217.462 393.75 0C393.75 -217.462 217.462 -393.75 0 -393.75C-217.462 -393.75 -393.75 -217.462 -393.75 0C-393.75 217.462 -217.462 393.75 0 393.75Z" fill="#033D51" stroke="black" stroke-opacity="0.05" stroke-width="75.2"/>
<path d="M0 262.5C144.975 262.5 262.5 144.975 262.5 0C262.5 -144.975 144.975 -262.5 0 -262.5C-144.975 -262.5 -262.5 -144.975 -262.5 0C-262.5 144.975 -144.975 262.5 0 262.5Z" fill="#01364A" stroke="black" stroke-opacity="0.05" stroke-width="75.2"/>
<path d="M0 131.25C72.4874 131.25 131.25 72.4874 131.25 0C131.25 -72.4874 72.4874 -131.25 0 -131.25C-72.4874 -131.25 -131.25 -72.4874 -131.25 0C-131.25 72.4874 -72.4874 131.25 0 131.25Z" fill="#003044" stroke="black" stroke-opacity="0.05" stroke-width="75.2"/>
</g>
<defs>
<clipPath id="clip0_2_135">
<rect width="2100" height="1050" fill="white"/>
</clipPath>
</defs>
</svg>
