<svg width="200" height="200" viewBox="0 0 200 200" fill="none" xmlns="http://www.w3.org/2000/svg">
<rect x="3.05176e-05" y="0.00012207" width="200" height="200" rx="100" fill="#2CA9BB"/>
<path d="M149.583 97.9168H144.375C144.375 77.7606 128.073 61.4585 107.917 61.4585H102.708V54.8439C104.292 53.9294 105.608 52.614 106.522 51.03C107.436 49.4459 107.917 47.6491 107.917 45.8201C107.916 43.9912 107.434 42.1946 106.519 40.611C105.604 39.0274 104.288 37.7127 102.704 36.799C101.119 35.8854 99.3223 35.405 97.4934 35.4061C95.6644 35.4073 93.868 35.89 92.2848 36.8057C90.7015 37.7214 89.3873 39.0378 88.4743 40.6226C87.5612 42.2073 87.0815 44.0045 87.0834 45.8335C87.0834 49.6876 89.1667 53.0731 92.2917 54.8439V61.4585H87.0834C66.9271 61.4585 50.625 77.7606 50.625 97.9168H45.4167C42.5521 97.9168 40.2084 100.261 40.2084 103.125V118.75C40.2084 121.615 42.5521 123.958 45.4167 123.958H50.625V129.167C50.625 131.929 51.7225 134.579 53.676 136.532C55.6295 138.486 58.279 139.583 61.0417 139.583H133.958C139.74 139.583 144.375 134.948 144.375 129.167V123.958H149.583C152.448 123.958 154.792 121.615 154.792 118.75V103.125C154.792 100.261 152.448 97.9168 149.583 97.9168ZM80.2084 113.75L74.0625 107.604L67.9167 113.75L61.7709 107.604L74.0625 95.3126L86.3542 107.604L80.2084 113.75ZM127.083 113.75L120.938 107.604L114.792 113.75L108.646 107.604L120.938 95.3126L133.229 107.604L127.083 113.75Z" fill="white"/>
</svg>
