<svg width="40" height="40" viewBox="0 0 40 40" fill="none" xmlns="http://www.w3.org/2000/svg">
<rect width="40" height="40" rx="20" fill="#E74C3C"/>
<path d="M29.9167 19.5834H28.875C28.875 15.5522 25.6146 12.2918 21.5833 12.2918H20.5417V10.9689C20.8585 10.786 21.1215 10.5229 21.3044 10.2061C21.4872 9.88926 21.5834 9.52989 21.5833 9.1641C21.5832 8.79831 21.4868 8.43899 21.3038 8.12227C21.1208 7.80556 20.8576 7.54261 20.5407 7.35988C20.2239 7.17715 19.8645 7.08106 19.4987 7.0813C19.1329 7.08153 18.7736 7.17807 18.457 7.36121C18.1403 7.54435 17.8775 7.80764 17.6948 8.12458C17.5122 8.44153 17.4163 8.80098 17.4167 9.16677C17.4167 9.9376 17.8333 10.6147 18.4583 10.9689V12.2918H17.4167C13.3854 12.2918 10.125 15.5522 10.125 19.5834H9.08334C8.51042 19.5834 8.04167 20.0522 8.04167 20.6251V23.7501C8.04167 24.323 8.51042 24.7918 9.08334 24.7918H10.125V25.8334C10.125 26.386 10.3445 26.9159 10.7352 27.3066C11.1259 27.6973 11.6558 27.9168 12.2083 27.9168H26.7917C27.9479 27.9168 28.875 26.9897 28.875 25.8334V24.7918H29.9167C30.4896 24.7918 30.9583 24.323 30.9583 23.7501V20.6251C30.9583 20.0522 30.4896 19.5834 29.9167 19.5834ZM16.0417 22.7501L14.8125 21.5209L13.5833 22.7501L12.3542 21.5209L14.8125 19.0626L17.2708 21.5209L16.0417 22.7501ZM25.4167 22.7501L24.1875 21.5209L22.9583 22.7501L21.7292 21.5209L24.1875 19.0626L26.6458 21.5209L25.4167 22.7501Z" fill="white"/>
</svg>
