<svg width="216" height="216" viewBox="0 0 216 216" fill="none" xmlns="http://www.w3.org/2000/svg">
<g clip-path="url(#clip0_202_2)">
<path d="M198.781 148.797C193.605 154.256 193.524 159.664 195.681 166.541C199.38 178.341 201.363 190.668 204.473 202.669C205.63 207.132 203.274 210.026 200.716 212.231C198.044 214.533 194.791 217.006 190.377 214.789C175.687 207.413 160.67 200.659 146.217 192.855C140.33 189.677 135.25 191.009 129.583 192.024C111.557 195.25 93.7177 194.649 75.9884 189.556C55.6996 183.728 38.211 173.358 24.273 157.618C5.83062 136.792 -2.22961 112.469 1.88516 84.5844C5.57268 59.5954 17.892 40.0047 37.7339 24.3463C52.7835 12.4698 69.7259 5.26436 88.1447 2.39765C119.056 -2.41337 148.353 3.07468 174.369 21.2778C198.368 38.0704 212.222 61.2069 214.983 90.5244C216.985 111.787 211.043 131.035 198.781 148.797ZM28.1004 74.5C27.9191 75.3742 27.3063 76.101 26.7558 77.6045C25.8312 79.7163 24.4454 81.7462 24.0539 83.9526C20.3657 104.736 24.2353 123.852 38.0594 140.143C60.6498 166.765 90.031 176.375 123.666 170.187C137.686 167.607 149.598 167.955 161.431 175.803C165.908 178.772 171.088 180.681 177.213 183.696C175.134 175.276 173.826 168.098 171.546 161.243C168.99 153.558 170.441 147.644 176.141 141.807C185.614 132.108 191.014 120.071 192.469 106.641C193.554 96.6151 194.663 86.3289 188.941 76.2483C185.823 64.2989 178.447 55.0737 169.772 46.7804C160.818 38.2192 150.493 31.805 138.597 28.0921C125.198 23.9104 111.547 21.3842 97.5685 24.0872C88.3876 25.8625 79.0917 27.7912 70.3793 31.0664C57.1506 36.0393 46.0353 44.5949 37.7116 56.0538C33.723 61.5447 31.2943 68.1686 28.1004 74.0945C28.1004 74.0945 28.7171 74.184 28.1004 74.5Z" fill="white"/>
<path d="M188.905 77.0108C194.663 86.3289 193.554 96.6151 192.469 106.641C191.014 120.071 185.614 132.108 176.141 141.807C170.441 147.644 168.99 153.558 171.546 161.243C173.826 168.098 175.134 175.276 177.213 183.696C171.088 180.681 165.908 178.772 161.431 175.803C149.598 167.955 137.686 167.607 123.666 170.187C90.031 176.375 60.6498 166.765 38.0594 140.143C24.2353 123.852 20.3658 104.736 24.0539 83.9526C24.4454 81.7462 25.8313 79.7163 27.2707 77.1189C27.9523 75.7677 28.3334 75.8655 28.5 75C33.1851 71.741 37.249 67.2541 41.8327 64.1026C54.9729 55.0683 69.1498 48.9357 85.0391 45.5897C102.448 41.9235 119.245 42.8814 136.198 46.6424C156.914 51.238 173.996 62.27 188.905 77.0108ZM156.54 109.276C157.611 108.503 158.792 107.843 159.734 106.936C164.159 102.675 165.184 96.7272 162.502 91.427C159.955 86.3931 154.333 83.3751 148.905 84.1271C143.282 84.906 138.635 89.4435 137.546 95.2178C135.656 105.247 145.174 112.737 156.54 109.276ZM78.6518 96.7031C78.3003 95.2561 78.1579 93.7156 77.5602 92.3788C75.2625 87.2395 71.2812 84.3027 65.5945 84.0546C60.2558 83.8217 55.1985 87.2334 53.0928 92.326C50.8816 97.6736 52.0289 102.481 55.8892 106.565C59.4847 110.368 63.9704 111.722 69.0653 110.093C75.1569 108.146 78.0785 103.681 78.6518 96.7031ZM101.658 109.06C108.73 111.912 114.697 110.603 118.556 105.355C122.265 100.311 122.056 93.4506 118.05 88.7723C112.898 82.7552 104.2 82.405 98.653 87.9914C92.7101 93.9762 93.6949 102.657 101.658 109.06Z" fill="#2CA9BB"/>
<path d="M156.205 109.457C145.174 112.737 135.656 105.247 137.546 95.2178C138.635 89.4435 143.282 84.906 148.905 84.1271C154.333 83.3751 159.955 86.3931 162.502 91.4271C165.184 96.7272 164.159 102.675 159.734 106.936C158.792 107.843 157.611 108.503 156.205 109.457Z" fill="white"/>
<path d="M78.6558 97.0951C78.0785 103.681 75.157 108.146 69.0653 110.093C63.9704 111.722 59.4847 110.368 55.8892 106.565C52.0289 102.481 50.8816 97.6736 53.0928 92.326C55.1985 87.2334 60.2558 83.8217 65.5946 84.0546C71.2812 84.3027 75.2625 87.2395 77.5602 92.3788C78.1579 93.7157 78.3003 95.2561 78.6558 97.0951Z" fill="white"/>
<path d="M101.329 108.874C93.695 102.657 92.7101 93.9761 98.653 87.9914C104.2 82.405 112.898 82.7552 118.05 88.7723C122.056 93.4506 122.265 100.311 118.556 105.355C114.697 110.603 108.73 111.912 101.329 108.874Z" fill="white"/>
</g>
<defs>
<clipPath id="clip0_202_2">
<rect width="216" height="216" fill="white"/>
</clipPath>
</defs>
</svg>
