<svg width="150" height="150" viewBox="0 0 150 150" fill="none" xmlns="http://www.w3.org/2000/svg">
<g clip-path="url(#clip0_2_70)">
<path d="M138.043 103.331C134.448 107.122 134.392 110.878 135.889 115.654C138.458 123.848 139.836 132.409 141.995 140.742C142.799 143.842 141.163 145.851 139.386 147.382C137.531 148.981 135.271 150.698 132.206 149.159C122.005 144.037 111.577 139.346 101.539 133.927C97.4515 131.72 93.9234 132.645 89.9885 133.35C77.47 135.591 65.0818 135.173 52.7698 131.636C38.6803 127.589 26.5354 120.388 16.8562 109.457C4.04905 94.9943 -1.54833 78.1033 1.30915 58.7392C3.86993 41.3857 12.425 27.781 26.2041 16.9072C36.6552 8.65957 48.4208 3.65581 61.2116 1.66504C82.6777 -1.67595 103.023 2.1352 121.089 14.7763C137.756 26.4378 147.376 42.5048 149.294 62.8642C150.684 77.63 146.558 90.9965 138.043 103.331ZM19.5142 51.7361C19.3883 52.3432 18.9627 52.8479 18.5804 53.8921C17.9384 55.3586 16.976 56.7682 16.7041 58.3004C14.1429 72.7331 16.8301 86.0086 26.4301 97.3218C42.1179 115.809 62.5215 122.483 85.8794 118.185C95.6151 116.394 103.888 116.635 112.105 122.085C115.214 124.147 118.811 125.473 123.065 127.567C121.621 121.719 120.712 116.735 119.129 111.974C117.354 106.637 118.362 102.53 122.32 98.4774C128.899 91.7414 132.649 83.3823 133.659 74.0565C134.413 67.0938 135.182 59.9507 131.209 52.9502C129.044 44.652 123.922 38.2456 117.898 32.4864C111.679 26.5411 104.509 22.0868 96.2476 19.5084C86.943 16.6044 77.4634 14.8502 67.7559 16.7272C61.3803 17.9601 54.9248 19.2995 48.8745 21.5739C39.6879 25.0273 31.9689 30.9687 26.1886 38.9263C23.4188 42.7394 21.7322 47.3393 19.5142 51.4545C19.5142 51.4545 19.9424 51.5167 19.5142 51.7361Z" fill="#CEF9FF"/>
<path d="M131.184 53.4797C135.182 59.9507 134.413 67.0938 133.659 74.0565C132.649 83.3823 128.899 91.7414 122.32 98.4774C118.362 102.53 117.354 106.637 119.129 111.974C120.712 116.735 121.621 121.719 123.065 127.567C118.811 125.473 115.214 124.147 112.105 122.085C103.888 116.635 95.6151 116.394 85.8794 118.185C62.5215 122.483 42.1179 115.809 26.4301 97.3218C16.8301 86.0086 14.1429 72.7331 16.7041 58.3004C16.976 56.7682 17.9384 55.3586 18.938 53.5548C19.4113 52.6165 19.676 52.6844 19.7917 52.0833C23.0452 49.8201 25.8673 46.7043 29.0505 44.5157C38.1756 38.2419 48.0207 33.9831 59.0549 31.6595C71.1447 29.1136 82.8089 29.7787 94.5822 32.3905C108.968 35.5819 120.831 43.2431 131.184 53.4797ZM108.708 75.8864C109.452 75.3491 110.272 74.8911 110.927 74.261C113.999 71.3024 114.711 67.1717 112.849 63.491C111.08 59.9952 107.176 57.8994 103.406 58.4216C99.5011 58.9625 96.2741 62.1135 95.5184 66.1235C94.2058 73.0879 100.816 78.2896 108.708 75.8864ZM54.6193 67.1549C54.3752 66.1501 54.2763 65.0803 53.8613 64.1519C52.2656 60.583 49.5008 58.5435 45.5518 58.3713C41.8443 58.2095 38.3323 60.5788 36.87 64.1153C35.3345 67.8289 36.1312 71.1676 38.8119 74.0035C41.3088 76.6448 44.4239 77.5847 47.962 76.4537C52.1923 75.1015 54.2212 72.001 54.6193 67.1549ZM70.5956 75.7359C75.5068 77.7164 79.6507 76.8079 82.3308 73.1633C84.9064 69.6607 84.7611 64.8963 81.9794 61.6475C78.4017 57.4689 72.3614 57.2257 68.509 61.1052C64.382 65.2612 65.0659 71.2899 70.5956 75.7359Z" fill="#2CA9BB"/>
<path d="M108.475 76.0119C100.816 78.2896 94.2058 73.0879 95.5184 66.1235C96.2741 62.1135 99.5011 58.9625 103.406 58.4216C107.176 57.8994 111.08 59.9952 112.849 63.491C114.711 67.1717 113.999 71.3024 110.927 74.261C110.272 74.8911 109.452 75.3491 108.475 76.0119Z" fill="#CEF9FF"/>
<path d="M54.622 67.4271C54.2212 72.001 52.1923 75.1015 47.962 76.4537C44.4239 77.5847 41.3088 76.6448 38.8119 74.0034C36.1312 71.1676 35.3345 67.8289 36.87 64.1153C38.3323 60.5788 41.8443 58.2095 45.5518 58.3713C49.5008 58.5435 52.2656 60.583 53.8613 64.1519C54.2763 65.0803 54.3752 66.1501 54.622 67.4271Z" fill="#CEF9FF"/>
<path d="M70.3676 75.6068C65.0659 71.2899 64.382 65.2612 68.509 61.1052C72.3614 57.2257 78.4017 57.4689 81.9794 61.6475C84.7611 64.8963 84.9064 69.6607 82.3308 73.1633C79.6507 76.8079 75.5068 77.7163 70.3676 75.6068Z" fill="#CEF9FF"/>
</g>
<defs>
<clipPath id="clip0_2_70">
<rect width="150" height="150" fill="white"/>
</clipPath>
</defs>
</svg>
